<svg width="24" height="24" viewBox="0 0 24 24" fill="none" xmlns="http://www.w3.org/2000/svg">
<path d="M18.2579 3.508C18.395 3.56477 18.5121 3.66091 18.5946 3.78427C18.677 3.90762 18.721 4.05265 18.7209 4.201V8.444C18.7209 8.64291 18.6419 8.83368 18.5013 8.97433C18.3606 9.11498 18.1698 9.194 17.9709 9.194H13.7279C13.5797 9.19387 13.4348 9.14981 13.3116 9.06739C13.1884 8.98497 13.0924 8.86789 13.0356 8.73092C12.9789 8.59396 12.9641 8.44326 12.993 8.29786C13.0219 8.15246 13.0932 8.01889 13.1979 7.914L14.7999 6.31C13.3284 5.69378 11.6947 5.58014 10.152 5.9867C8.60929 6.39326 7.24377 7.29731 6.26706 8.55875C5.29035 9.82018 4.75699 11.3686 4.74963 12.9639C4.74228 14.5593 5.26134 16.1125 6.22638 17.3829C7.19142 18.6533 8.54854 19.5699 10.0874 19.9906C11.6263 20.4114 13.261 20.3128 14.7382 19.7102C16.2153 19.1076 17.4525 18.0345 18.2579 16.6574C19.0633 15.2802 19.3919 13.6759 19.1929 12.093C19.1723 11.8978 19.2291 11.7022 19.3511 11.5484C19.473 11.3945 19.6505 11.2946 19.8453 11.2701C20.0401 11.2456 20.2367 11.2985 20.393 11.4174C20.5492 11.5363 20.6526 11.7117 20.6809 11.906C20.9243 13.8422 20.5136 15.8041 19.5139 17.48C18.5142 19.1559 16.9829 20.4495 15.1636 21.1552C13.3443 21.8609 11.3412 21.9382 9.47293 21.3748C7.60463 20.8114 5.97828 19.6396 4.85242 18.0457C3.72657 16.4518 3.16582 14.5273 3.25932 12.5782C3.35283 10.629 4.09521 8.76704 5.36846 7.28825C6.64172 5.80946 8.37276 4.79873 10.2864 4.41673C12.2001 4.03473 14.1865 4.30339 15.9299 5.18L17.4399 3.67C17.5449 3.56528 17.6785 3.494 17.8239 3.46516C17.9693 3.43633 18.121 3.45124 18.2579 3.508Z" fill="#EEEEEE"/>
</svg>
