<svg width="17" height="14" viewBox="0 0 17 14" fill="none" xmlns="http://www.w3.org/2000/svg">
<path d="M10.1759 13.1345L17 6.69854L10.1759 0.262607C10.1142 0.186673 10.0359 0.124048 9.94626 0.0789746C9.85659 0.0339007 9.75764 0.00742926 9.65612 0.001352C9.5546 -0.00472526 9.45287 0.00973397 9.35782 0.0437503C9.26277 0.0777667 9.17662 0.130546 9.10521 0.198516C9.03379 0.266485 8.97877 0.348058 8.94388 0.437712C8.90898 0.527366 8.89503 0.623007 8.90295 0.718161C8.91088 0.813315 8.94051 0.905761 8.98982 0.989239C9.03914 1.07272 9.107 1.14528 9.18881 1.20201L14.2945 6.03229L0.71011 6.03229C0.521776 6.03229 0.341158 6.10248 0.207987 6.22743C0.0748158 6.35238 0 6.52184 0 6.69854C0 6.87524 0.0748158 7.0447 0.207987 7.16964C0.341158 7.29459 0.521776 7.36478 0.71011 7.36478L14.2945 7.36478L9.18881 12.1951C9.05603 12.3205 8.98181 12.4903 8.98248 12.6671C8.98314 12.8439 9.05864 13.0132 9.19236 13.1378C9.32607 13.2624 9.50706 13.332 9.69549 13.3314C9.88393 13.3308 10.0644 13.2599 10.1972 13.1345H10.1759Z" fill="#FAFAFA"/>
</svg>
