<svg width="29" height="29" viewBox="0 0 29 29" fill="none" xmlns="http://www.w3.org/2000/svg">
<path d="M6.34375 13.5938H24.4688C24.7091 13.5938 24.9396 13.6892 25.1096 13.8592C25.2795 14.0291 25.375 14.2596 25.375 14.5C25.375 14.7404 25.2795 14.9709 25.1096 15.1408C24.9396 15.3108 24.7091 15.4062 24.4688 15.4062H6.34375C6.1034 15.4062 5.87289 15.3108 5.70293 15.1408C5.53298 14.9709 5.4375 14.7404 5.4375 14.5C5.4375 14.2596 5.53298 14.0291 5.70293 13.8592C5.87289 13.6892 6.1034 13.5938 6.34375 13.5938Z" fill="#EEEEEE"/>
<path d="M6.7186 14.5002L14.235 22.0148C14.4052 22.185 14.5008 22.4158 14.5008 22.6564C14.5008 22.8971 14.4052 23.1279 14.235 23.298C14.0649 23.4682 13.8341 23.5638 13.5934 23.5638C13.3528 23.5638 13.122 23.4682 12.9518 23.298L4.79554 15.1418C4.71115 15.0576 4.64419 14.9576 4.5985 14.8475C4.55281 14.7374 4.5293 14.6194 4.5293 14.5002C4.5293 14.381 4.55281 14.2629 4.5985 14.1528C4.64419 14.0427 4.71115 13.9427 4.79554 13.8585L12.9518 5.70229C13.122 5.53212 13.3528 5.43652 13.5934 5.43652C13.8341 5.43652 14.0649 5.53212 14.235 5.70229C14.4052 5.87246 14.5008 6.10326 14.5008 6.34392C14.5008 6.58457 14.4052 6.81537 14.235 6.98554L6.7186 14.5002Z" fill="#EEEEEE"/>
</svg>
