<svg width="20" height="20" viewBox="0 0 20 20" fill="none" xmlns="http://www.w3.org/2000/svg">
<path d="M16.875 2.8125H6.875C6.79212 2.8125 6.71263 2.84542 6.65403 2.90403C6.59542 2.96263 6.5625 3.04212 6.5625 3.125V6.5625H3.125C3.04212 6.5625 2.96263 6.59542 2.90403 6.65403C2.84542 6.71263 2.8125 6.79212 2.8125 6.875V16.875C2.8125 16.9579 2.84542 17.0374 2.90403 17.096C2.96263 17.1546 3.04212 17.1875 3.125 17.1875H13.125C13.2079 17.1875 13.2874 17.1546 13.346 17.096C13.4046 17.0374 13.4375 16.9579 13.4375 16.875V13.4375H16.875C16.9579 13.4375 17.0374 13.4046 17.096 13.346C17.1546 13.2874 17.1875 13.2079 17.1875 13.125V3.125C17.1875 3.04212 17.1546 2.96263 17.096 2.90403C17.0374 2.84542 16.9579 2.8125 16.875 2.8125ZM12.8125 16.5625H3.4375V7.1875H12.8125V16.5625ZM16.5625 12.8125H13.4375V6.875C13.4375 6.79212 13.4046 6.71263 13.346 6.65403C13.2874 6.59542 13.2079 6.5625 13.125 6.5625H7.1875V3.4375H16.5625V12.8125Z" fill="#EEEEEE"/>
</svg>
